<svg width="22" height="22" viewBox="0 0 22 22" fill="none" xmlns="http://www.w3.org/2000/svg">
<g clip-path="url(#clip0_373_291)">
<path d="M10.883 1.95979C13.7908 1.95979 14.1351 1.97254 15.2787 2.02355C16.3415 2.07032 16.9154 2.24887 17.298 2.39766C17.8039 2.59321 18.1695 2.83127 18.5478 3.20963C18.9304 3.59223 19.1642 3.95358 19.3598 4.45947C19.5086 4.84208 19.6871 5.42023 19.7339 6.47877C19.7849 7.62659 19.7977 7.97093 19.7977 10.8745C19.7977 13.7823 19.7849 14.1266 19.7339 15.2702C19.6871 16.333 19.5086 16.9069 19.3598 17.2895C19.1642 17.7954 18.9262 18.161 18.5478 18.5393C18.1652 18.9219 17.8039 19.1557 17.298 19.3513C16.9154 19.5001 16.3372 19.6786 15.2787 19.7254C14.1309 19.7764 13.7865 19.7892 10.883 19.7892C7.97518 19.7892 7.63084 19.7764 6.48728 19.7254C5.42448 19.6786 4.85058 19.5001 4.46797 19.3513C3.96208 19.1557 3.59648 18.9177 3.21813 18.5393C2.83553 18.1567 2.60171 17.7954 2.40616 17.2895C2.25737 16.9069 2.07882 16.3287 2.03206 15.2702C1.98104 14.1224 1.96829 13.778 1.96829 10.8745C1.96829 7.96668 1.98104 7.62234 2.03206 6.47877C2.07882 5.41598 2.25737 4.84208 2.40616 4.45947C2.60171 3.95358 2.83978 3.58798 3.21813 3.20963C3.60074 2.82702 3.96208 2.59321 4.46797 2.39766C4.85058 2.24887 5.42874 2.07032 6.48728 2.02355C7.63084 1.97254 7.97518 1.95979 10.883 1.95979ZM10.883 0C7.92842 0 7.55857 0.0127535 6.398 0.0637675C5.24168 0.114781 4.44672 0.301833 3.75803 0.569656C3.03958 0.850233 2.43167 1.22008 1.828 1.828C1.22008 2.43167 0.850233 3.03958 0.569656 3.75378C0.301833 4.44672 0.114781 5.23743 0.0637675 6.39375C0.0127535 7.55857 0 7.92842 0 10.883C0 13.8375 0.0127535 14.2074 0.0637675 15.368C0.114781 16.5243 0.301833 17.3192 0.569656 18.0079C0.850233 18.7264 1.22008 19.3343 1.828 19.938C2.43167 20.5416 3.03958 20.9157 3.75378 21.1921C4.44672 21.4599 5.23743 21.6469 6.39375 21.6979C7.55432 21.749 7.92417 21.7617 10.8787 21.7617C13.8333 21.7617 14.2031 21.749 15.3637 21.6979C16.52 21.6469 17.315 21.4599 18.0037 21.1921C18.7179 20.9157 19.3258 20.5416 19.9295 19.938C20.5331 19.3343 20.9072 18.7264 21.1835 18.0122C21.4514 17.3192 21.6384 16.5285 21.6894 15.3722C21.7405 14.2116 21.7532 13.8418 21.7532 10.8872C21.7532 7.93267 21.7405 7.56282 21.6894 6.40225C21.6384 5.24594 21.4514 4.45097 21.1835 3.76228C20.9157 3.03958 20.5459 2.43167 19.938 1.828C19.3343 1.22434 18.7264 0.850233 18.0122 0.573907C17.3192 0.306084 16.5285 0.119033 15.3722 0.0680186C14.2074 0.0127535 13.8375 0 10.883 0Z" fill="#F8F3E6"/>
<path d="M10.883 5.29272C7.79666 5.29272 5.29272 7.79666 5.29272 10.883C5.29272 13.9693 7.79666 16.4733 10.883 16.4733C13.9693 16.4733 16.4733 13.9693 16.4733 10.883C16.4733 7.79666 13.9693 5.29272 10.883 5.29272ZM10.883 14.5092C8.88071 14.5092 7.25676 12.8853 7.25676 10.883C7.25676 8.88071 8.88071 7.25676 10.883 7.25676C12.8853 7.25676 14.5092 8.88071 14.5092 10.883C14.5092 12.8853 12.8853 14.5092 10.883 14.5092Z" fill="#F8F3E6"/>
<path d="M17.9994 5.07159C17.9994 5.79429 17.4127 6.3767 16.6943 6.3767C15.9716 6.3767 15.3892 5.79004 15.3892 5.07159C15.3892 4.34889 15.9758 3.76648 16.6943 3.76648C17.4127 3.76648 17.9994 4.35314 17.9994 5.07159Z" fill="#F8F3E6"/>
</g>
<defs>
<clipPath id="clip0_373_291">
<rect width="21.766" height="21.766" fill="white"/>
</clipPath>
</defs>
</svg>
