<svg width="23" height="23" viewBox="0 0 23 23" fill="none" xmlns="http://www.w3.org/2000/svg">
<path d="M11.5 0.985352C14.8486 0.985352 17.8317 2.54962 19.7588 4.99121C20.2449 5.60709 20.6631 6.27873 21.0029 6.99414C21.6511 8.35857 22.0146 9.88563 22.0146 11.5C22.0146 13.4472 21.486 15.268 20.5654 16.8301C18.7356 19.9345 15.3599 22.0146 11.5 22.0146C7.64008 22.0146 4.26436 19.9345 2.43457 16.8301C1.51398 15.268 0.985352 13.4472 0.985352 11.5C0.985352 9.88563 1.3489 8.35857 1.99707 6.99414C2.33695 6.27873 2.75512 5.60709 3.24121 4.99121C5.16831 2.54962 8.15141 0.985352 11.5 0.985352Z" stroke="#F8F3E6" stroke-width="1.97143"/>
<path d="M11.5001 0.75C11.9907 0.75005 12.543 1.0154 13.1183 1.68066C13.6926 2.34485 14.2279 3.34302 14.6603 4.62109C14.877 5.26184 15.0651 5.96563 15.2189 6.7207C15.5124 8.16226 15.6788 9.78334 15.6788 11.5C15.6788 14.5988 15.139 17.3687 14.296 19.3359C13.8739 20.3209 13.3903 21.0705 12.8917 21.5625C12.3964 22.0513 11.927 22.25 11.5001 22.25C11.0733 22.25 10.6038 22.0513 10.1085 21.5625C9.60996 21.0705 9.12635 20.3209 8.70422 19.3359C7.86119 17.3687 7.32141 14.5988 7.32141 11.5C7.32141 9.78334 7.4869 8.16226 7.7804 6.7207C7.93415 5.96557 8.12322 5.26188 8.33997 4.62109C8.77232 3.34301 9.30763 2.34484 9.88196 1.68066C10.4573 1.01538 11.0095 0.75 11.5001 0.75Z" stroke="#F8F3E6" stroke-width="1.5"/>
<path d="M11.4999 16.0834C14.4348 16.0834 17.0752 16.5079 20.2811 17.6986C18.3334 20.4526 15.127 22.2504 11.4999 22.2504C7.87259 22.2503 4.66526 20.4529 2.71765 17.6986C5.92403 16.5076 8.56467 16.0834 11.4999 16.0834Z" stroke="#F8F3E6" stroke-width="1.5"/>
<path d="M11.4999 6.91663C14.4348 6.91663 17.0752 6.49211 20.2811 5.30139C18.3334 2.54738 15.127 0.749634 11.4999 0.749634C7.87259 0.749689 4.66526 2.54707 2.71765 5.30139C5.92403 6.49242 8.56467 6.91661 11.4999 6.91663Z" stroke="#F8F3E6" stroke-width="1.5"/>
<line x1="0.547607" y1="11.8452" x2="22.4524" y2="11.8452" stroke="#F8F3E6" stroke-width="1.5"/>
</svg>
