<svg width="91" height="30" viewBox="0 0 91 30" fill="none" xmlns="http://www.w3.org/2000/svg">
<path d="M83.0273 19.8047H82.6953C80.9896 19.8047 79.5638 20.1888 78.418 20.957C77.2852 21.7122 76.7188 22.6562 76.7188 23.7891V24.1797C76.7188 24.8438 76.9206 25.4427 77.3242 25.9766C77.7409 26.4974 78.2747 26.7578 78.9258 26.7578L79.1602 26.7969H79.7461C81.1003 26.7969 82.207 26.2435 83.0664 25.1367C83.444 24.6549 83.6328 23.6654 83.6328 22.168C83.6328 22.0508 83.6328 21.9336 83.6328 21.8164L83.6523 21.3477V20.8789C83.6523 20.1628 83.444 19.8047 83.0273 19.8047ZM73.5352 13.4961C73.5352 12.5326 74.2969 11.6732 75.8203 10.918C77.3568 10.1497 78.9453 9.76562 80.5859 9.76562C80.638 9.76562 80.6901 9.76562 80.7422 9.76562C82.3047 9.76562 83.5547 9.95443 84.4922 10.332C86.3932 11.0872 87.4805 12.6888 87.7539 15.1367C87.7799 15.3841 87.793 17.0247 87.793 20.0586C87.793 23.0794 87.8711 24.8503 88.0273 25.3711C88.1966 25.8919 88.6393 26.276 89.3555 26.5234C90.0846 26.7708 90.4492 27.0052 90.4492 27.2266C90.4492 27.6953 90.2148 28.0534 89.7461 28.3008C88.8086 28.7956 87.8841 29.043 86.9727 29.043C86.0742 29.043 85.4036 28.8346 84.9609 28.418C84.1667 27.6758 83.7435 27.3047 83.6914 27.3047C83.6393 27.3047 82.9036 27.6367 81.4844 28.3008C80.0651 28.9518 78.8216 29.2773 77.7539 29.2773C76.1523 29.2773 74.8958 28.8346 73.9844 27.9492C73.0729 27.0638 72.6172 25.9896 72.6172 24.7266V24.2383C72.6172 22.8841 73.2031 21.6927 74.375 20.6641C75.5469 19.6354 77.6562 18.8346 80.7031 18.2617C81.8099 18.0534 82.5065 17.8581 82.793 17.6758C83.3659 17.3112 83.6523 16.569 83.6523 15.4492C83.6523 14.3294 83.3529 13.4701 82.7539 12.8711C82.1549 12.2721 81.3542 11.9727 80.3516 11.9727C79.349 11.9727 78.3789 12.5586 77.4414 13.7305C76.5169 14.8893 75.6706 15.4688 74.9023 15.4688C73.9909 15.4688 73.5352 14.8112 73.5352 13.4961Z" fill="#6E4741"/>
<path d="M65.293 29.2969H64.2188C60.4036 29.2969 58.4961 29.0039 58.4961 28.418C58.4961 28.0794 58.8151 27.7083 59.4531 27.3047C60.1042 26.901 60.5273 26.3477 60.7227 25.6445C60.931 24.9284 61.0352 22.9167 61.0352 19.6094C61.0352 16.3021 60.9375 14.4206 60.7422 13.9648C60.5599 13.5091 60.2148 13.112 59.707 12.7734C59.1992 12.4219 58.9453 12.1094 58.9453 11.8359C58.9453 11.5495 59.2318 11.0482 59.8047 10.332C60.3906 9.60286 60.8008 8.73047 61.0352 7.71484C61.6341 5.1888 62.4609 3.35286 63.5156 2.20703C64.8568 0.735677 66.7383 0 69.1602 0C70.332 0 71.2695 0.208333 71.9727 0.625C72.6758 1.02865 73.0273 1.55599 73.0273 2.20703C73.0273 2.85807 72.8516 3.33984 72.5 3.65234C72.1615 3.96484 71.7969 4.12109 71.4062 4.12109C71.0286 4.12109 70.4036 3.88672 69.5312 3.41797C68.6719 2.94922 68.0208 2.71484 67.5781 2.71484C66.862 2.71484 66.3086 3.16406 65.918 4.0625C65.5404 4.94792 65.3516 5.92448 65.3516 6.99219C65.3516 8.0599 65.5729 8.84115 66.0156 9.33594C66.1719 9.50521 66.7513 9.85026 67.7539 10.3711C68.7565 10.8789 69.2578 11.3281 69.2578 11.7188C69.2578 12.0182 68.7435 12.3242 67.7148 12.6367C66.6862 12.9362 66.0482 13.2682 65.8008 13.6328C65.3841 14.2448 65.1758 16.224 65.1758 19.5703C65.1758 22.9036 65.293 24.9089 65.5273 25.5859C65.7747 26.263 66.25 26.8555 66.9531 27.3633C67.6562 27.8711 68.0078 28.2617 68.0078 28.5352C68.0078 29.043 67.1029 29.2969 65.293 29.2969Z" fill="#6E4741"/>
<path d="M50.6445 29.2969H49.5703C45.7552 29.2969 43.8477 29.0039 43.8477 28.418C43.8477 28.0794 44.1667 27.7083 44.8047 27.3047C45.4557 26.901 45.8789 26.3477 46.0742 25.6445C46.2826 24.9284 46.3867 22.9167 46.3867 19.6094C46.3867 16.3021 46.2891 14.4206 46.0938 13.9648C45.9115 13.5091 45.5664 13.112 45.0586 12.7734C44.5508 12.4219 44.2969 12.1094 44.2969 11.8359C44.2969 11.5495 44.5833 11.0482 45.1562 10.332C45.7422 9.60286 46.1523 8.73047 46.3867 7.71484C46.9857 5.1888 47.8125 3.35286 48.8672 2.20703C50.2083 0.735677 52.0898 0 54.5117 0C55.6836 0 56.6211 0.208333 57.3242 0.625C58.0273 1.02865 58.3789 1.55599 58.3789 2.20703C58.3789 2.85807 58.2031 3.33984 57.8516 3.65234C57.513 3.96484 57.1484 4.12109 56.7578 4.12109C56.3802 4.12109 55.7552 3.88672 54.8828 3.41797C54.0234 2.94922 53.3724 2.71484 52.9297 2.71484C52.2135 2.71484 51.6602 3.16406 51.2695 4.0625C50.8919 4.94792 50.7031 5.92448 50.7031 6.99219C50.7031 8.0599 50.9245 8.84115 51.3672 9.33594C51.5234 9.50521 52.1029 9.85026 53.1055 10.3711C54.1081 10.8789 54.6094 11.3281 54.6094 11.7188C54.6094 12.0182 54.0951 12.3242 53.0664 12.6367C52.0378 12.9362 51.3997 13.2682 51.1523 13.6328C50.7357 14.2448 50.5273 16.224 50.5273 19.5703C50.5273 22.9036 50.6445 24.9089 50.8789 25.5859C51.1263 26.263 51.6016 26.8555 52.3047 27.3633C53.0078 27.8711 53.3594 28.2617 53.3594 28.5352C53.3594 29.043 52.4544 29.2969 50.6445 29.2969Z" fill="#6E4741"/>
<path d="M33.1836 19.8047H32.8516C31.1458 19.8047 29.7201 20.1888 28.5742 20.957C27.4414 21.7122 26.875 22.6562 26.875 23.7891V24.1797C26.875 24.8438 27.0768 25.4427 27.4805 25.9766C27.8971 26.4974 28.431 26.7578 29.082 26.7578L29.3164 26.7969H29.9023C31.2565 26.7969 32.3633 26.2435 33.2227 25.1367C33.6003 24.6549 33.7891 23.6654 33.7891 22.168C33.7891 22.0508 33.7891 21.9336 33.7891 21.8164L33.8086 21.3477V20.8789C33.8086 20.1628 33.6003 19.8047 33.1836 19.8047ZM23.6914 13.4961C23.6914 12.5326 24.4531 11.6732 25.9766 10.918C27.513 10.1497 29.1016 9.76562 30.7422 9.76562C30.7943 9.76562 30.8464 9.76562 30.8984 9.76562C32.4609 9.76562 33.7109 9.95443 34.6484 10.332C36.5495 11.0872 37.6367 12.6888 37.9102 15.1367C37.9362 15.3841 37.9492 17.0247 37.9492 20.0586C37.9492 23.0794 38.0273 24.8503 38.1836 25.3711C38.3529 25.8919 38.7956 26.276 39.5117 26.5234C40.2409 26.7708 40.6055 27.0052 40.6055 27.2266C40.6055 27.6953 40.3711 28.0534 39.9023 28.3008C38.9648 28.7956 38.0404 29.043 37.1289 29.043C36.2305 29.043 35.5599 28.8346 35.1172 28.418C34.3229 27.6758 33.8997 27.3047 33.8477 27.3047C33.7956 27.3047 33.0599 27.6367 31.6406 28.3008C30.2214 28.9518 28.9779 29.2773 27.9102 29.2773C26.3086 29.2773 25.0521 28.8346 24.1406 27.9492C23.2292 27.0638 22.7734 25.9896 22.7734 24.7266V24.2383C22.7734 22.8841 23.3594 21.6927 24.5312 20.6641C25.7031 19.6354 27.8125 18.8346 30.8594 18.2617C31.9661 18.0534 32.6628 17.8581 32.9492 17.6758C33.5221 17.3112 33.8086 16.569 33.8086 15.4492C33.8086 14.3294 33.5091 13.4701 32.9102 12.8711C32.3112 12.2721 31.5104 11.9727 30.5078 11.9727C29.5052 11.9727 28.5352 12.5586 27.5977 13.7305C26.6732 14.8893 25.8268 15.4688 25.0586 15.4688C24.1471 15.4688 23.6914 14.8112 23.6914 13.4961Z" fill="#6E4741"/>
<path d="M8.04688 20.5664C7.2526 20.5664 6.85547 21.7122 6.85547 24.0039C6.85547 24.8112 7.04427 25.599 7.42188 26.3672L7.94922 27.2656C8.13151 27.5911 8.22266 27.8255 8.22266 27.9688C8.22266 28.4375 6.91406 28.6719 4.29688 28.6719C1.67969 28.6719 0.371094 28.4505 0.371094 28.0078C0.371094 27.8906 0.585938 27.5391 1.01562 26.9531C1.45833 26.3542 1.77734 25.6576 1.97266 24.8633C2.18099 24.056 2.28516 22.1875 2.28516 19.2578L2.30469 18.5156C2.33073 17.8516 2.34375 17.3568 2.34375 17.0312L2.38281 15.5469L2.40234 14.043V11.0156C2.40234 7.2526 2.33073 5.03255 2.1875 4.35547C2.05729 3.66536 1.81641 3.14453 1.46484 2.79297L1.03516 2.46094L0.566406 2.16797C0.188802 1.89453 0 1.64062 0 1.40625C0 1.15885 0.15625 0.94401 0.46875 0.761719C1.35417 0.253906 2.72135 0 4.57031 0H5.23438C5.97656 0 6.4388 0.527344 6.62109 1.58203C6.6862 1.97266 6.71875 4.88932 6.71875 10.332L6.69922 12.5781C6.69922 14.362 6.70573 15.3125 6.71875 15.4297C6.86198 16.6667 7.20052 17.2852 7.73438 17.2852C8.26823 17.2852 9.1862 16.582 10.4883 15.1758C11.7904 13.7565 12.4414 12.7474 12.4414 12.1484L12.3828 11.4453C12.3828 11.0026 12.5521 10.6901 12.8906 10.5078C13.2422 10.3255 13.9648 10.2344 15.0586 10.2344C17.5456 10.2344 18.7891 10.5013 18.7891 11.0352C18.7891 11.0482 17.6367 11.9792 15.332 13.8281C13.0273 15.6771 11.875 16.9987 11.875 17.793C11.875 18.5872 13.457 20.8333 16.6211 24.5312C17.3112 25.3385 18.0664 26.0352 18.8867 26.6211C19.7201 27.207 20.1367 27.5977 20.1367 27.793C20.1367 28.431 19.1732 28.75 17.2461 28.75H15.8203C14.5703 28.75 13.6719 28.3919 13.125 27.6758L12.3438 25.7812C12.0182 25 11.4779 24.0755 10.7227 23.0078C9.5638 21.3802 8.67188 20.5664 8.04688 20.5664Z" fill="#6E4741"/>
</svg>
