<svg width="106" height="30" viewBox="0 0 106 30" fill="none" xmlns="http://www.w3.org/2000/svg">
<path d="M105.221 0.221542C105.221 0.259819 105.207 0.278956 105.178 0.278956C104.601 2.65198 103.938 5.06328 103.189 7.51286C102.468 9.92415 101.949 12.3737 101.632 14.8616C101.949 17.1581 102.439 19.5311 103.102 21.9807C103.765 24.4302 104.299 26.765 104.702 28.9849C104.558 28.9466 104.428 28.9275 104.313 28.9275C104.198 28.9275 104.068 28.9275 103.924 28.9275C103.607 28.9275 103.261 28.9466 102.886 28.9849C102.512 28.9849 102.151 28.9849 101.805 28.9849C101.69 28.9849 101.459 28.9849 101.113 28.9849C100.796 28.9849 100.45 28.9849 100.076 28.9849C99.7298 28.9466 99.3839 28.9275 99.038 28.9275C98.7209 28.8892 98.5191 28.8509 98.4326 28.8127H98.3894C98.1588 28.162 97.957 27.4539 97.784 26.6884C97.6399 25.8847 97.4958 25.0809 97.3517 24.2771C97.2075 23.4734 97.049 22.6887 96.876 21.9232C96.7319 21.1195 96.5445 20.3923 96.3139 19.7416V19.6842C95.7951 21.2152 95.4059 22.8227 95.1465 24.5068C94.887 26.1526 94.5123 27.6644 94.0223 29.0423C93.907 29.0423 93.7052 29.0423 93.4169 29.0423C93.1287 29.0423 92.8116 29.0423 92.4657 29.0423C92.1197 29.0806 91.7883 29.0997 91.4712 29.0997C91.1829 29.0997 90.9811 29.0997 90.8658 29.0997C90.4046 29.0997 89.8569 29.0806 89.2227 29.0423C88.6174 29.0423 88.1274 28.9466 87.7526 28.7553C87.9544 27.7601 88.1994 26.6884 88.4877 25.5402C88.8048 24.3537 89.1219 23.1672 89.4389 21.9807C89.756 20.7559 90.0587 19.5311 90.347 18.3063C90.6352 17.0815 90.8802 15.9141 91.082 14.8042C90.7361 12.4311 90.2028 10.0198 89.4822 7.57027C88.7904 5.12069 88.1129 2.74767 87.45 0.451193C88.7471 0.33637 89.756 0.278956 90.4767 0.278956C90.7361 0.278956 91.0676 0.278956 91.4712 0.278956C91.9036 0.278956 92.3071 0.278956 92.6819 0.278956C93.0854 0.278956 93.4313 0.298094 93.7196 0.336368C94.0079 0.374642 94.1664 0.412918 94.1952 0.451193C94.3105 1.02531 94.4547 1.77166 94.6276 2.69025C94.8294 3.57057 95.0168 4.48916 95.1897 5.44603C95.3915 6.36462 95.5789 7.26407 95.7518 8.14439C95.9248 9.0247 96.0833 9.71365 96.2274 10.2112C96.4004 9.67537 96.5734 8.98643 96.7463 8.14439C96.9481 7.26407 97.1355 6.34548 97.3084 5.38861C97.5102 4.43175 97.6832 3.51316 97.8273 2.63284C98.0002 1.71425 98.1588 0.967899 98.3029 0.393779C98.5624 0.355505 98.9515 0.336368 99.4704 0.336368C100.018 0.298094 100.609 0.278956 101.243 0.278956C101.906 0.24068 102.584 0.221542 103.275 0.221542C103.967 0.221542 104.601 0.221542 105.178 0.221542H105.221Z" fill="#002B8A"/>
<path d="M76.1135 10.3333C75.5507 10.3081 75.1413 10.2702 74.8854 10.2197V10.9012C74.911 11.6583 74.9366 12.2767 74.9622 12.7562C75.0134 13.2357 75.1797 13.7026 75.4611 14.1569C75.7681 14.7374 76.2031 15.1665 76.766 15.4441C77.3289 15.7217 77.879 15.81 78.4163 15.7091C78.9536 15.6081 79.4013 15.3053 79.7595 14.8005C80.1433 14.2705 80.3096 13.4881 80.2585 12.4533C80.5143 12.4786 80.8597 12.4912 81.2947 12.4912C81.7296 12.4659 82.1774 12.4407 82.6379 12.4155C83.1241 12.3902 83.5846 12.3902 84.0196 12.4155C84.4545 12.4155 84.8127 12.4533 85.0942 12.529C85.043 13.1852 84.9918 13.8288 84.9407 14.4598C84.8895 15.0907 84.8255 15.6838 84.7488 16.2391C84.672 16.7691 84.5697 17.236 84.4417 17.6398C84.3394 18.0184 84.1987 18.2834 84.0196 18.4348C83.5846 19.0406 83.0217 19.4696 82.3309 19.722C81.6401 19.9744 80.8853 20.1258 80.0666 20.1763C79.2478 20.2268 78.4035 20.2268 77.5336 20.1763C76.6892 20.1258 75.9089 20.1006 75.1925 20.1006C74.4761 19.9996 73.8108 19.7725 73.1968 19.4191C72.5059 18.9396 71.9303 18.3213 71.4697 17.5641C71.0092 16.7817 70.6382 15.9362 70.3567 15.0276C70.0753 14.0938 69.8834 13.1095 69.7811 12.0748C69.6787 11.04 69.6531 10.0052 69.7043 8.97043C69.7811 8.03661 69.8578 7.14065 69.9346 6.28254C70.0369 5.3992 70.2416 4.54109 70.5486 3.70823C70.8812 2.97631 71.393 2.35797 72.0838 1.8532C72.7746 1.3232 73.555 0.932003 74.4249 0.679619C75.2948 0.401998 76.2159 0.250568 77.1882 0.225328C78.1604 0.20009 79.1071 0.301043 80.0282 0.528189C81.2051 0.730097 82.1518 1.13391 82.8682 1.73963C83.5846 2.34535 84.1219 3.07727 84.4801 3.93537C84.8639 4.79348 85.0942 5.73992 85.1709 6.77469C85.2477 7.80946 85.2477 8.85686 85.1709 9.91687C84.9918 9.96735 84.6464 10.0178 84.1347 10.0683C83.6486 10.1188 83.0601 10.1693 82.3693 10.2197C81.7041 10.2702 80.9876 10.3081 80.2201 10.3333C79.4525 10.3585 78.7105 10.3712 77.9941 10.3712C77.3033 10.3712 76.6764 10.3585 76.1135 10.3333ZM80.6039 5.37396C80.348 4.91967 79.9898 4.57895 79.5293 4.3518C79.3246 4.22561 79.1199 4.13728 78.9152 4.0868C78.7105 4.01109 78.4674 3.97323 78.186 3.97323C77.5719 3.97323 77.073 4.03633 76.6892 4.16252C76.3054 4.28871 75.9984 4.46538 75.7681 4.69252C75.5379 4.91967 75.3588 5.18467 75.2308 5.48753C75.1285 5.79039 75.0517 6.10587 75.0006 6.43397C74.9494 6.71159 74.9238 6.9135 74.9238 7.03969C74.9494 7.14065 75.0773 7.21636 75.3076 7.26684C75.5379 7.29208 75.8961 7.3047 76.3822 7.3047C76.8939 7.27946 77.6359 7.26684 78.6082 7.26684C79.2734 7.26684 79.7723 7.27946 80.1049 7.3047C80.4376 7.32994 80.6678 7.34256 80.7958 7.34256C80.9493 7.31732 81.026 7.27946 81.026 7.22898C81.026 7.15327 81.026 7.01446 81.026 6.81255C81.026 6.30778 80.8853 5.82825 80.6039 5.37396Z" fill="#002B8A"/>
<path d="M84.4246 24.3782C84.4246 24.667 84.4733 24.9269 84.5707 25.1579C84.7656 26.1975 84.863 26.9916 84.863 27.5403C84.863 28.0601 84.933 27.5969 84.6407 27.8568C84.4458 28.0878 84.0561 28.2177 83.4715 28.2466C82.8869 28.2466 82.0588 28.2466 80.987 28.2466C79.9153 28.2177 78.5026 28.2177 76.7489 28.2466C75.0926 28.2755 73.4523 28.3044 72.2394 28.3333C71.0554 28.3621 69.4094 28.3766 67.3012 28.3766C65.222 28.3766 63.2627 28.3477 59.7684 28.2899V27.5102C59.855 25.3444 59.7111 24.2482 59.7689 22.5155C59.8266 20.754 59.8555 19.1223 59.8555 17.6207C59.8844 16.0901 59.8988 14.6173 59.8988 13.2023C59.8988 11.7873 59.8844 10.3434 59.8555 8.87058C59.8266 7.39779 59.7978 5.83837 59.7689 4.19231C59.74 2.51737 59.7113 2.41133 59.6824 0.389855C59.9712 0.274342 60.4188 0.187708 61.0252 0.12995C61.6317 0.0433169 61.454 0 62.1471 0C62.8402 0 63.5188 0.0433169 64.183 0.12995C64.8472 0.216586 65.3814 0.346537 65.7857 0.519806C65.728 2.39689 65.699 2.58957 65.699 4.58216C65.7279 6.54588 65.7567 8.52404 65.7856 10.5166C65.8145 12.5092 65.8289 14.5018 65.8289 16.4944C65.8578 18.4581 65.8578 20.3641 65.8289 22.2123V22.2556C66.0311 22.1979 66.4065 22.1834 66.9552 22.2123C67.5328 22.2123 68.197 22.2267 68.9478 22.2556C69.6986 22.2845 70.4928 22.3278 71.3302 22.3856C72.1966 22.4145 71.2228 22.4433 73.756 22.4722C76.3866 22.5011 78.6762 22.53 80.6248 22.5588C82.6708 22.5588 84.0836 22.5444 84.863 22.5155C84.863 22.8332 84.8143 23.1508 84.7169 23.4685C84.6194 23.7573 84.522 24.0605 84.4246 24.3782Z" fill="#002B8A"/>
<path d="M49.1624 14.0019V23.1776V28.8176C48.6421 28.7615 48.1219 28.7475 47.6016 28.7755C47.0814 28.8036 46.5611 28.8457 46.0409 28.9018C45.5206 28.9299 45.0157 28.9579 44.526 28.986C44.067 29.014 43.6385 29 43.2407 28.9439C43.1795 28.6072 43.1336 28.06 43.103 27.3024C43.103 26.5167 43.0877 25.6468 43.0571 24.6928C43.0571 23.7107 43.0571 22.6865 43.0571 21.6202C43.0571 20.5539 43.0571 19.5298 43.0571 18.5477C43.0877 17.5375 43.103 16.6396 43.103 15.8539C43.1336 15.0682 43.1489 14.4649 43.1489 14.044C42.6592 14.044 42.139 14.044 41.5881 14.044C41.0679 14.044 40.5017 14.0581 39.8897 14.0861L39.752 8.95114C40.3946 8.95114 40.9761 8.95114 41.4963 8.95114C42.0472 8.95114 42.5674 8.96517 43.0571 8.99323C42.9959 8.29173 43.0112 7.53411 43.103 6.72037C43.1948 5.90663 43.409 5.12095 43.7456 4.36333C44.1129 3.57765 44.6178 2.87615 45.2605 2.25883C45.9032 1.61345 46.7448 1.13643 47.7853 0.82777C49.0706 0.43493 50.463 0.19642 51.9626 0.11224C53.4927 -4.58331e-07 54.977 -0.0280602 56.4153 0.0280607C56.5683 0.44896 56.6601 0.91195 56.6907 1.41703C56.752 1.92211 56.7673 2.42719 56.7367 2.93227C56.706 3.43735 56.6601 3.9284 56.5989 4.40542C56.5377 4.88244 56.4765 5.31737 56.4153 5.71021C56.0481 5.68215 55.6196 5.68215 55.13 5.71021C54.6709 5.73827 54.1813 5.78036 53.661 5.83648C53.1408 5.8926 52.6205 5.96275 52.1003 6.04693C51.58 6.10305 51.1057 6.15917 50.6772 6.21529C49.9734 6.32753 49.5296 6.66425 49.346 7.22545C49.193 7.75859 49.193 8.37591 49.346 9.07741H56.3694C56.3082 9.38607 56.2929 9.69473 56.3235 10.0034C56.3541 10.284 56.3541 10.6207 56.3235 11.0135C56.3235 11.3222 56.3235 11.5747 56.3235 11.7712C56.3235 11.9395 56.3082 12.1219 56.2776 12.3183C56.2776 12.5148 56.2623 12.7673 56.2317 13.076C56.2011 13.3846 56.1552 13.8055 56.094 14.3387C54.5332 14.2545 53.2173 14.1843 52.1462 14.1282C51.1057 14.0721 50.1111 14.03 49.1624 14.0019Z" fill="#002B8A"/>
<path d="M35.8735 7.10912C36.5814 7.13822 37.2327 7.18187 37.2327 7.24007C37.2327 7.41467 37.2327 7.58927 37.2327 7.76387C37.2327 7.93847 37.2327 8.11307 37.2327 8.28767V8.72416C37.2327 11.8669 37.2327 14.9661 37.2327 18.0216C37.2327 21.0479 37.2327 24.118 37.2327 27.2317C37.2327 27.61 37.2327 27.9883 37.2327 28.3666C37.2327 28.7449 37.2327 28.9631 37.2327 29.0213C37.2327 29.0213 36.3124 29.0068 35.831 28.9777C35.3779 28.9195 34.9248 28.8904 34.4718 28.8904C34.1603 28.8904 33.8488 28.9195 33.5373 28.9777C33.2541 29.0068 32.9568 29.0213 32.6453 29.0213C32.4471 28.9631 32.3055 28.8467 32.2205 28.6721C32.1639 28.4975 32.1356 28.2938 32.1356 28.061C32.1356 27.7409 32.1639 27.479 32.2205 27.2753C32.2772 27.0716 32.3055 26.8243 32.3055 26.5333C31.6259 27.2317 30.7622 27.8282 29.7144 28.3229C28.695 28.8176 28.2764 28.8904 27.2853 28.8904C26.1809 28.8904 24.6456 28.6721 23.8527 27.8864C23.0881 27.1007 22.451 26.1259 21.9413 24.9619C21.4315 23.7979 21.0493 22.532 20.7944 21.1643C20.5679 19.7967 20.4546 18.5308 20.4546 17.3668C20.4546 15.9118 20.6387 14.5732 21.0068 13.351C21.3749 12.1288 21.8705 11.0813 22.4935 10.2083C23.1448 9.30616 23.9093 8.60777 24.7872 8.11307C25.665 7.58927 26.5995 7.31282 27.5906 7.28372C28.1003 7.28372 28.5676 7.29827 28.9923 7.32737C29.4454 7.32737 29.856 7.40012 30.2241 7.54562C30.5923 7.66202 30.9179 7.86572 31.2011 8.15672C31.4843 8.41862 31.725 8.79691 31.9232 9.29161C31.8949 8.82602 31.909 8.43317 31.9657 8.11307C32.0506 7.76387 32.0931 7.41467 32.0931 7.06547C32.0931 7.03637 32.178 7.02182 32.348 7.02182C32.5462 6.99273 32.7586 6.99273 32.9851 7.02182C33.2116 7.02182 33.4382 7.02182 33.6647 7.02182C33.8913 7.02182 34.047 7.02182 34.132 7.02182C34.6134 7.05092 35.1939 7.08002 35.8735 7.10912ZM27.466 12.9406C26.8147 13.4935 25.8208 15.2375 25.6792 15.965C25.5659 16.3433 25.491 16.7764 25.4627 17.1838C25.4344 17.5621 25.6792 17.8615 25.6792 18.2398C25.6792 19.5493 25.813 21.3445 26.4643 22.2757C27.144 23.1778 27.2783 23.973 28.4676 23.973C29.1755 23.973 30.6914 22.8376 31.0312 22.6048C31.3993 22.3429 31.6542 21.9937 31.7958 21.5572C31.9657 21.0916 32.0506 20.5387 32.0506 19.8985C32.0789 19.2292 32.0931 18.4872 32.0931 17.6724C32.0931 16.6539 32.0789 15.8536 32.0506 15.2716C32.0506 14.6605 31.9798 14.1949 31.8382 13.8748C31.725 13.5547 31.5126 13.351 31.2011 13.2637C30.9179 13.1764 30.4708 12.9406 30.2241 12.6671C29.4692 12.0919 28.1456 12.3586 27.466 12.9406Z" fill="#002B8A"/>
<path d="M17.9904 20.3094C18.5252 20.3094 18.9657 20.3514 19.3117 20.4353C19.2488 21.1631 19.1859 21.8768 19.123 22.5766C19.0601 23.2763 18.9814 23.9341 18.887 24.5499C18.7927 25.1377 18.6668 25.6555 18.5095 26.1034C18.3837 26.5232 18.2107 26.8311 17.9904 27.027C17.4556 27.6988 16.7478 28.1746 15.867 28.4545C15.0176 28.7344 14.0895 28.9024 13.0828 28.9584C12.0762 29.0423 11.038 29.0423 9.9684 28.9584C8.89879 28.9024 7.92357 28.8744 7.04271 28.8744C5.43831 28.6225 4.08557 28.0067 2.9845 27.027C2.13511 26.3553 1.55312 25.5156 1.23853 24.5079C0.923939 23.5003 0.735185 22.4506 0.672267 21.359C0.609349 20.2394 0.59362 19.1198 0.625079 18.0002C0.687997 16.8806 0.656538 15.8589 0.530702 14.9353C0.530702 13.9276 0.625079 12.92 0.813833 11.9123C0.845292 11.6044 0.955398 11.1846 1.14415 10.6528C1.33291 10.1209 1.47447 9.71508 1.56885 9.43518C1.78906 9.01533 2.13511 8.65146 2.607 8.34357C3.11034 8.03567 3.6766 7.78376 4.30578 7.58783C4.96642 7.36391 5.65852 7.20996 6.38207 7.12599C7.13709 7.04202 7.89211 7.00004 8.64712 7.00004C9.2763 7.05601 9.87402 7.07001 10.4403 7.04202C11.038 6.98604 11.6672 6.98604 12.3278 7.04202C13.3345 7.098 14.294 7.26595 15.2063 7.54584C16.1186 7.82574 16.9051 8.2456 17.5657 8.8054C18.0062 9.0853 18.3365 9.46318 18.5567 9.93901C18.8084 10.4148 18.9971 10.9747 19.123 11.6184C19.2488 12.2622 19.3117 12.9899 19.3117 13.8017C19.3432 14.5854 19.3746 15.4391 19.4061 16.3628C18.9971 16.4467 18.5252 16.4887 17.9904 16.4887C17.4871 16.4887 16.9523 16.4747 16.386 16.4467C15.8512 16.4187 15.3164 16.3768 14.7816 16.3208C14.2783 16.2648 13.8221 16.2088 13.4132 16.1528C13.2559 15.1732 13.4184 13.4607 12.6634 12.9288C11.9084 12.369 10.1467 12.3631 8.91977 12.643C8.25913 12.8109 7.82919 12.481 7.42022 12.9288C6.80677 12.7457 6.46597 14.4874 6.37159 14.9353C6.24575 15.803 5.95118 17.1045 5.95118 18.0002C5.95118 18.8959 6.0141 19.3297 5.95118 20.3094C5.88826 20.9532 5.97898 21.7792 6.23002 22.3295C6.65472 23.2605 7.72957 23.8835 8.32729 24.0235C8.92501 24.1354 10.3879 23.9955 11.017 23.9395C11.6462 23.8555 12.1443 23.4004 12.5218 23.1765C12.8941 22.4469 12.7368 22.0588 12.8941 21.6109C13.0828 21.1351 13.2244 20.7152 13.3188 20.3514C13.6334 20.3794 14.0581 20.3934 14.5929 20.3934C15.1277 20.3654 15.6939 20.3374 16.2917 20.3094C16.8894 20.2814 17.4556 20.2814 17.9904 20.3094Z" fill="#002B8A"/>
</svg>
