<svg width="109" height="30" viewBox="0 0 109 30" fill="none" xmlns="http://www.w3.org/2000/svg">
<path d="M108.221 0.221542C108.221 0.259819 108.207 0.278956 108.178 0.278956C107.601 2.65198 106.938 5.06328 106.189 7.51286C105.468 9.92415 104.949 12.3737 104.632 14.8616C104.949 17.1581 105.439 19.5311 106.102 21.9807C106.765 24.4302 107.299 26.765 107.702 28.9849C107.558 28.9466 107.428 28.9275 107.313 28.9275C107.198 28.9275 107.068 28.9275 106.924 28.9275C106.607 28.9275 106.261 28.9466 105.886 28.9849C105.512 28.9849 105.151 28.9849 104.805 28.9849C104.69 28.9849 104.459 28.9849 104.113 28.9849C103.796 28.9849 103.45 28.9849 103.076 28.9849C102.73 28.9466 102.384 28.9275 102.038 28.9275C101.721 28.8892 101.519 28.8509 101.433 28.8127H101.389C101.159 28.162 100.957 27.4539 100.784 26.6884C100.64 25.8847 100.496 25.0809 100.352 24.2771C100.208 23.4734 100.049 22.6887 99.876 21.9232C99.7319 21.1195 99.5445 20.3923 99.3139 19.7416V19.6842C98.7951 21.2152 98.4059 22.8227 98.1465 24.5068C97.887 26.1526 97.5123 27.6644 97.0223 29.0423C96.907 29.0423 96.7052 29.0423 96.4169 29.0423C96.1287 29.0423 95.8116 29.0423 95.4657 29.0423C95.1197 29.0806 94.7883 29.0997 94.4712 29.0997C94.1829 29.0997 93.9811 29.0997 93.8658 29.0997C93.4046 29.0997 92.8569 29.0806 92.2227 29.0423C91.6174 29.0423 91.1274 28.9466 90.7526 28.7553C90.9544 27.7601 91.1994 26.6884 91.4877 25.5402C91.8048 24.3537 92.1219 23.1672 92.4389 21.9807C92.756 20.7559 93.0587 19.5311 93.347 18.3063C93.6352 17.0815 93.8802 15.9141 94.082 14.8042C93.7361 12.4311 93.2028 10.0198 92.4822 7.57027C91.7904 5.12069 91.1129 2.74767 90.45 0.451193C91.7471 0.33637 92.756 0.278956 93.4767 0.278956C93.7361 0.278956 94.0676 0.278956 94.4712 0.278956C94.9036 0.278956 95.3071 0.278956 95.6819 0.278956C96.0854 0.278956 96.4313 0.298094 96.7196 0.336368C97.0079 0.374642 97.1664 0.412918 97.1952 0.451193C97.3105 1.02531 97.4547 1.77166 97.6276 2.69025C97.8294 3.57057 98.0168 4.48916 98.1897 5.44603C98.3915 6.36462 98.5789 7.26407 98.7518 8.14439C98.9248 9.0247 99.0833 9.71365 99.2274 10.2112C99.4004 9.67537 99.5734 8.98643 99.7463 8.14439C99.9481 7.26407 100.135 6.34548 100.308 5.38861C100.51 4.43175 100.683 3.51316 100.827 2.63284C101 1.71425 101.159 0.967899 101.303 0.393779C101.562 0.355505 101.951 0.336368 102.47 0.336368C103.018 0.298094 103.609 0.278956 104.243 0.278956C104.906 0.24068 105.584 0.221542 106.275 0.221542C106.967 0.221542 107.601 0.221542 108.178 0.221542H108.221Z" fill="#6983BE"/>
<path d="M79.1135 10.3333C78.5507 10.3081 78.1413 10.2702 77.8854 10.2197V10.9012C77.911 11.6583 77.9366 12.2767 77.9622 12.7562C78.0134 13.2357 78.1797 13.7026 78.4611 14.1569C78.7681 14.7374 79.2031 15.1665 79.766 15.4441C80.3289 15.7217 80.879 15.81 81.4163 15.7091C81.9536 15.6081 82.4013 15.3053 82.7595 14.8005C83.1433 14.2705 83.3096 13.4881 83.2585 12.4533C83.5143 12.4786 83.8597 12.4912 84.2947 12.4912C84.7296 12.4659 85.1774 12.4407 85.6379 12.4155C86.1241 12.3902 86.5846 12.3902 87.0196 12.4155C87.4545 12.4155 87.8127 12.4533 88.0942 12.529C88.043 13.1852 87.9918 13.8288 87.9407 14.4598C87.8895 15.0907 87.8255 15.6838 87.7488 16.2391C87.672 16.7691 87.5697 17.236 87.4417 17.6398C87.3394 18.0184 87.1987 18.2834 87.0196 18.4348C86.5846 19.0406 86.0217 19.4696 85.3309 19.722C84.6401 19.9744 83.8853 20.1258 83.0666 20.1763C82.2478 20.2268 81.4035 20.2268 80.5336 20.1763C79.6892 20.1258 78.9089 20.1006 78.1925 20.1006C77.4761 19.9996 76.8108 19.7725 76.1968 19.4191C75.5059 18.9396 74.9303 18.3213 74.4697 17.5641C74.0092 16.7817 73.6382 15.9362 73.3567 15.0276C73.0753 14.0938 72.8834 13.1095 72.7811 12.0748C72.6787 11.04 72.6531 10.0052 72.7043 8.97043C72.7811 8.03661 72.8578 7.14065 72.9346 6.28254C73.0369 5.3992 73.2416 4.54109 73.5486 3.70823C73.8812 2.97631 74.393 2.35797 75.0838 1.8532C75.7746 1.3232 76.555 0.932003 77.4249 0.679619C78.2948 0.401998 79.2159 0.250568 80.1882 0.225328C81.1604 0.20009 82.1071 0.301043 83.0282 0.528189C84.2051 0.730097 85.1518 1.13391 85.8682 1.73963C86.5846 2.34535 87.1219 3.07727 87.4801 3.93537C87.8639 4.79348 88.0942 5.73992 88.1709 6.77469C88.2477 7.80946 88.2477 8.85686 88.1709 9.91687C87.9918 9.96735 87.6464 10.0178 87.1347 10.0683C86.6486 10.1188 86.0601 10.1693 85.3693 10.2197C84.7041 10.2702 83.9876 10.3081 83.2201 10.3333C82.4525 10.3585 81.7105 10.3712 80.9941 10.3712C80.3033 10.3712 79.6764 10.3585 79.1135 10.3333ZM83.6039 5.37396C83.348 4.91967 82.9898 4.57895 82.5293 4.3518C82.3246 4.22561 82.1199 4.13728 81.9152 4.0868C81.7105 4.01109 81.4674 3.97323 81.186 3.97323C80.5719 3.97323 80.073 4.03633 79.6892 4.16252C79.3054 4.28871 78.9984 4.46538 78.7681 4.69252C78.5379 4.91967 78.3588 5.18467 78.2308 5.48753C78.1285 5.79039 78.0517 6.10587 78.0006 6.43397C77.9494 6.71159 77.9238 6.9135 77.9238 7.03969C77.9494 7.14065 78.0773 7.21636 78.3076 7.26684C78.5379 7.29208 78.8961 7.3047 79.3822 7.3047C79.8939 7.27946 80.6359 7.26684 81.6082 7.26684C82.2734 7.26684 82.7723 7.27946 83.1049 7.3047C83.4376 7.32994 83.6678 7.34256 83.7958 7.34256C83.9493 7.31732 84.026 7.27946 84.026 7.22898C84.026 7.15327 84.026 7.01446 84.026 6.81255C84.026 6.30778 83.8853 5.82825 83.6039 5.37396Z" fill="#6983BE"/>
<path d="M87.4247 24.3782C87.4247 24.667 87.4734 24.9269 87.5708 25.1579C87.7657 26.1975 87.8631 26.9916 87.8631 27.5403C87.8631 28.0601 87.9331 27.5969 87.6408 27.8568C87.446 28.0878 87.0562 28.2177 86.4716 28.2466C85.8871 28.2466 85.0589 28.2466 83.9872 28.2466C82.9154 28.2177 81.5027 28.2177 79.749 28.2466C78.0927 28.2755 76.4524 28.3044 75.2395 28.3333C74.0555 28.3621 72.4095 28.3766 70.3014 28.3766C68.2221 28.3766 66.2628 28.3477 62.7685 28.2899V27.5102C62.8552 25.3444 62.7113 24.2482 62.769 22.5155C62.8268 20.754 62.8556 19.1223 62.8556 17.6207C62.8845 16.0901 62.899 14.6173 62.899 13.2023C62.899 11.7873 62.8845 10.3434 62.8556 8.87058C62.8268 7.39779 62.7979 5.83837 62.769 4.19231C62.7401 2.51738 62.7114 2.41133 62.6825 0.389858C62.9713 0.274345 63.4189 0.18771 64.0253 0.129953C64.6318 0.0433197 64.4541 2.75453e-06 65.1472 2.75453e-06C65.8403 2.75453e-06 66.5189 0.0433197 67.1831 0.129953C67.8473 0.216588 68.3816 0.34654 68.7859 0.519809C68.7281 2.39689 68.6991 2.58957 68.6991 4.58217C68.728 6.54588 68.7569 8.52404 68.7857 10.5166C68.8146 12.5092 68.8291 14.5018 68.8291 16.4944C68.8579 18.4581 68.8579 20.3641 68.8291 22.2123V22.2556C69.0312 22.1979 69.4066 22.1834 69.9553 22.2123C70.5329 22.2123 71.1971 22.2267 71.9479 22.2556C72.6987 22.2845 73.4929 22.3278 74.3304 22.3856C75.1967 22.4145 74.223 22.4433 76.7561 22.4722C79.3867 22.5011 81.6763 22.53 83.6249 22.5588C85.6709 22.5588 87.0837 22.5444 87.8631 22.5155C87.8631 22.8332 87.8144 23.1508 87.717 23.4685C87.6195 23.7573 87.5221 24.0605 87.4247 24.3782Z" fill="#6983BE"/>
<path d="M52.1623 14.0019V23.1776V28.8176C51.642 28.7615 51.1218 28.7475 50.6015 28.7755C50.0813 28.8036 49.561 28.8457 49.0408 28.9018C48.5205 28.9299 48.0156 28.9579 47.5259 28.986C47.0669 29.014 46.6384 29 46.2406 28.9439C46.1794 28.6072 46.1335 28.06 46.1029 27.3024C46.1029 26.5167 46.0876 25.6468 46.057 24.6928C46.057 23.7107 46.057 22.6865 46.057 21.6202C46.057 20.5539 46.057 19.5298 46.057 18.5477C46.0876 17.5375 46.1029 16.6396 46.1029 15.8539C46.1335 15.0682 46.1488 14.4649 46.1488 14.044C45.6591 14.044 45.1389 14.044 44.588 14.044C44.0678 14.044 43.5016 14.0581 42.8895 14.0861L42.7518 8.95114C43.3945 8.95114 43.976 8.95114 44.4962 8.95114C45.0471 8.95114 45.5673 8.96517 46.057 8.99323C45.9958 8.29173 46.0111 7.53411 46.1029 6.72037C46.1947 5.90663 46.4089 5.12095 46.7455 4.36333C47.1128 3.57765 47.6177 2.87615 48.2604 2.25883C48.903 1.61345 49.7446 1.13643 50.7851 0.82777C52.0705 0.43493 53.4629 0.19642 54.9625 0.11224C56.4926 -4.58331e-07 57.9769 -0.0280602 59.4152 0.0280607C59.5682 0.44896 59.66 0.91195 59.6906 1.41703C59.7518 1.92211 59.7671 2.42719 59.7365 2.93227C59.7059 3.43735 59.66 3.9284 59.5988 4.40542C59.5376 4.88244 59.4764 5.31737 59.4152 5.71021C59.048 5.68215 58.6195 5.68215 58.1299 5.71021C57.6708 5.73827 57.1812 5.78036 56.6609 5.83648C56.1407 5.8926 55.6204 5.96275 55.1002 6.04693C54.5799 6.10305 54.1056 6.15917 53.6771 6.21529C52.9733 6.32753 52.5295 6.66425 52.3459 7.22545C52.1929 7.75859 52.1929 8.37591 52.3459 9.07741H59.3693C59.3081 9.38607 59.2928 9.69473 59.3234 10.0034C59.354 10.284 59.354 10.6207 59.3234 11.0135C59.3234 11.3222 59.3234 11.5747 59.3234 11.7712C59.3234 11.9395 59.3081 12.1219 59.2775 12.3183C59.2775 12.5148 59.2622 12.7673 59.2316 13.076C59.201 13.3846 59.1551 13.8055 59.0939 14.3387C57.5331 14.2545 56.2172 14.1843 55.1461 14.1282C54.1056 14.0721 53.111 14.03 52.1623 14.0019Z" fill="#6983BE"/>
<path d="M38.8736 7.10912C39.5815 7.13822 40.2328 7.18187 40.2328 7.24007C40.2328 7.41467 40.2328 7.58927 40.2328 7.76387C40.2328 7.93847 40.2328 8.11307 40.2328 8.28767V8.72416C40.2328 11.8669 40.2328 14.9661 40.2328 18.0216C40.2328 21.0479 40.2328 24.118 40.2328 27.2317C40.2328 27.61 40.2328 27.9883 40.2328 28.3666C40.2328 28.7449 40.2328 28.9631 40.2328 29.0213C40.2328 29.0213 39.3125 29.0068 38.8311 28.9777C38.378 28.9195 37.925 28.8904 37.4719 28.8904C37.1604 28.8904 36.8489 28.9195 36.5374 28.9777C36.2542 29.0068 35.9569 29.0213 35.6454 29.0213C35.4472 28.9631 35.3056 28.8467 35.2206 28.6721C35.164 28.4975 35.1357 28.2938 35.1357 28.061C35.1357 27.7409 35.164 27.479 35.2206 27.2753C35.2773 27.0716 35.3056 26.8243 35.3056 26.5333C34.626 27.2317 33.7623 27.8282 32.7145 28.3229C31.6951 28.8176 31.2765 28.8904 30.2854 28.8904C29.181 28.8904 27.6457 28.6721 26.8528 27.8864C26.0882 27.1007 25.4511 26.1259 24.9414 24.9619C24.4317 23.7979 24.0494 22.532 23.7945 21.1643C23.568 19.7967 23.4547 18.5308 23.4547 17.3668C23.4547 15.9118 23.6388 14.5732 24.0069 13.351C24.375 12.1288 24.8706 11.0813 25.4936 10.2083C26.1449 9.30616 26.9095 8.60777 27.7873 8.11307C28.6651 7.58927 29.5996 7.31282 30.5907 7.28372C31.1004 7.28372 31.5677 7.29827 31.9924 7.32737C32.4455 7.32737 32.8561 7.40012 33.2243 7.54562C33.5924 7.66202 33.918 7.86572 34.2012 8.15672C34.4844 8.41862 34.7251 8.79691 34.9233 9.29161C34.895 8.82602 34.9092 8.43317 34.9658 8.11307C35.0507 7.76387 35.0932 7.41467 35.0932 7.06547C35.0932 7.03637 35.1782 7.02182 35.3481 7.02182C35.5463 6.99273 35.7587 6.99273 35.9852 7.02182C36.2118 7.02182 36.4383 7.02182 36.6648 7.02182C36.8914 7.02182 37.0471 7.02182 37.1321 7.02182C37.6135 7.05092 38.194 7.08002 38.8736 7.10912ZM30.4661 12.9406C29.8148 13.4935 28.8209 15.2375 28.6793 15.965C28.566 16.3433 28.4912 16.7764 28.4628 17.1838C28.4345 17.5621 28.6793 17.8615 28.6793 18.2398C28.6793 19.5493 28.8132 21.3445 29.4645 22.2757C30.1441 23.1778 30.2784 23.973 31.4677 23.973C32.1757 23.973 33.6915 22.8376 34.0313 22.6048C34.3994 22.3429 34.6543 21.9937 34.7959 21.5572C34.9658 21.0916 35.0507 20.5387 35.0507 19.8985C35.0791 19.2292 35.0932 18.4872 35.0932 17.6724C35.0932 16.6539 35.0791 15.8536 35.0507 15.2716C35.0507 14.6605 34.9799 14.1949 34.8384 13.8748C34.7251 13.5547 34.5127 13.351 34.2012 13.2637C33.918 13.1764 33.471 12.9406 33.2243 12.6671C32.4693 12.0919 31.1457 12.3586 30.4661 12.9406Z" fill="#6983BE"/>
<path d="M20.9904 20.3094C21.5252 20.3094 21.9657 20.3514 22.3117 20.4353C22.2488 21.1631 22.1859 21.8768 22.123 22.5766C22.0601 23.2763 21.9814 23.9341 21.887 24.5499C21.7927 25.1377 21.6668 25.6555 21.5095 26.1034C21.3837 26.5232 21.2107 26.8311 20.9904 27.027C20.4556 27.6988 19.7478 28.1746 18.867 28.4545C18.0176 28.7344 17.0895 28.9024 16.0828 28.9584C15.0762 29.0423 14.038 29.0423 12.9684 28.9584C11.8988 28.9024 10.9236 28.8744 10.0427 28.8744C8.43831 28.6225 7.08557 28.0067 5.9845 27.027C5.13511 26.3553 4.55312 25.5156 4.23853 24.5079C3.92394 23.5003 3.73519 22.4506 3.67227 21.359C3.60935 20.2394 3.59362 19.1198 3.62508 18.0002C3.688 16.8806 3.65654 15.8589 3.5307 14.9353C3.5307 13.9276 3.62508 12.92 3.81383 11.9123C3.84529 11.6044 3.9554 11.1846 4.14415 10.6528C4.33291 10.1209 4.47447 9.71508 4.56885 9.43518C4.78906 9.01533 5.13511 8.65146 5.607 8.34357C6.11034 8.03567 6.6766 7.78376 7.30578 7.58783C7.96642 7.36391 8.65852 7.20996 9.38207 7.12599C10.1371 7.04202 10.8921 7.00004 11.6471 7.00004C12.2763 7.05601 12.874 7.07001 13.4403 7.04202C14.038 6.98604 14.6672 6.98604 15.3278 7.04202C16.3345 7.098 17.294 7.26595 18.2063 7.54584C19.1186 7.82574 19.9051 8.2456 20.5657 8.8054C21.0062 9.0853 21.3365 9.46318 21.5567 9.93901C21.8084 10.4148 21.9971 10.9747 22.123 11.6184C22.2488 12.2622 22.3117 12.9899 22.3117 13.8017C22.3432 14.5854 22.3746 15.4391 22.4061 16.3628C21.9971 16.4467 21.5252 16.4887 20.9904 16.4887C20.4871 16.4887 19.9523 16.4747 19.386 16.4467C18.8512 16.4187 18.3164 16.3768 17.7816 16.3208C17.2783 16.2648 16.8221 16.2088 16.4132 16.1528C16.2559 15.1732 16.4184 13.4607 15.6634 12.9288C14.9084 12.369 13.1467 12.3631 11.9198 12.643C11.2591 12.8109 10.8292 12.481 10.4202 12.9288C9.80677 12.7457 9.46597 14.4874 9.37159 14.9353C9.24575 15.803 8.95118 17.1045 8.95118 18.0002C8.95118 18.8959 9.0141 19.3297 8.95118 20.3094C8.88826 20.9532 8.97898 21.7792 9.23002 22.3295C9.65472 23.2605 10.7296 23.8835 11.3273 24.0235C11.925 24.1354 13.3879 23.9955 14.017 23.9395C14.6462 23.8555 15.1443 23.4004 15.5218 23.1765C15.8941 22.4469 15.7368 22.0588 15.8941 21.6109C16.0828 21.1351 16.2244 20.7152 16.3188 20.3514C16.6334 20.3794 17.0581 20.3934 17.5929 20.3934C18.1277 20.3654 18.6939 20.3374 19.2917 20.3094C19.8894 20.2814 20.4556 20.2814 20.9904 20.3094Z" fill="#6983BE"/>
</svg>
