<svg width="14" height="13" viewBox="0 0 14 13" fill="none" xmlns="http://www.w3.org/2000/svg">
<path d="M2.73165 12.9881L6.82725 10.8328L10.9228 12.9858C10.9418 12.9957 10.9631 13.0001 10.9844 12.9986C11.0057 12.997 11.0262 12.9895 11.0435 12.977C11.0608 12.9645 11.0742 12.9474 11.0824 12.9276C11.0905 12.9078 11.0929 12.8862 11.0894 12.8651L10.3082 8.30426L13.6203 5.07488C13.6355 5.05992 13.6462 5.04105 13.6512 5.02037C13.6563 4.99969 13.6555 4.97801 13.6489 4.95775C13.6424 4.9375 13.6303 4.91946 13.6141 4.90566C13.5979 4.89185 13.5782 4.88282 13.5571 4.87958L8.97787 4.21325L6.93064 0.064807C6.92123 0.0453835 6.90655 0.0290026 6.88826 0.0175408C6.86997 0.00607903 6.84883 0 6.82725 0C6.80566 0 6.78452 0.00607903 6.76623 0.0175408C6.74795 0.0290026 6.73326 0.0453835 6.72385 0.064807L4.67663 4.2144L0.0973651 4.88073C0.0763245 4.88397 0.0566 4.893 0.0403923 4.90681C0.0241847 4.92061 0.0121317 4.93865 0.00557833 4.9589C-0.000975032 4.97916 -0.00177113 5.00084 0.00327919 5.02152C0.00832951 5.0422 0.0190274 5.06107 0.0341791 5.07603L3.34627 8.30541L2.56392 12.8663C2.56041 12.8874 2.56286 12.909 2.57098 12.9288C2.57909 12.9485 2.59256 12.9656 2.60987 12.9782C2.62717 12.9907 2.64763 12.9982 2.66894 12.9997C2.69025 13.0012 2.71157 12.9968 2.7305 12.9869L2.73165 12.9881Z" fill="#F8F3E6"/>
</svg>
